STARTFONT 2.1
COMMENT
COMMENT /efont/ 16dot Kanji font
COMMENT 	for JISX 0201, 1976
COMMENT
COMMENT          This file includeds only the difference from
COMMENT          latin1/font_src.bit. Please marge them with
COMMENT          `bdfmarge' command.
COMMENT
COMMENT Designed by /efont/ <efont@ring.gr.jp>, 2000
COMMENT
FONT -Shinonome-Gothic-Bold-I-Normal--18-170-75-75-C-90-JISX0201.1976-0
SIZE 18 75 75
FONTBOUNDINGBOX 14 18 -2 -2
STARTPROPERTIES 20
FONTNAME_REGISTRY ""
FOUNDRY "Shinonome"
FAMILY_NAME "Gothic"
WEIGHT_NAME "Bold"
SLANT "I"
SETWIDTH_NAME "Normal"
ADD_STYLE_NAME ""
PIXEL_SIZE 18
POINT_SIZE 169
RESOLUTION_X 75
RESOLUTION_Y 75
SPACING "C"
AVERAGE_WIDTH 90
CHARSET_REGISTRY "JISX0201.1976"
CHARSET_ENCODING "0"
DEFAULT_CHAR 32
FONT_DESCENT 2
FONT_ASCENT 16
COPYRIGHT "Public Domain"
_XMBDFED_INFO "Edited with xmbdfed 4.4."
ENDPROPERTIES
CHARS 221
STARTCHAR 01
ENCODING 1
SWIDTH 480 0
DWIDTH 9 0
BBX 14 18 -2 -2
BITMAP
0060
0060
00f0
01e0
01e0
03f0
07e0
0ff0
0ff0
0fc0
0fc0
0780
0f00
0f00
0600
0c00
0000
0000
ENDCHAR
STARTCHAR 02
ENCODING 2
SWIDTH 480 0
DWIDTH 9 0
BBX 14 18 -2 -2
BITMAP
06aa
0354
07aa
06a8
0d54
0ea8
1aa8
0d50
1ea8
1aa0
3550
3aa0
6aa0
3540
6ea0
7a80
0000
0000
ENDCHAR
STARTCHAR 03
ENCODING 3
SWIDTH 480 0
DWIDTH 9 0
BBX 14 18 -2 -2
BITMAP
0330
0330
0330
0660
07e0
0660
0cc0
0cc0
0000
03f0
00c0
00c0
0180
0180
0180
0300
0300
0000
ENDCHAR
STARTCHAR 04
ENCODING 4
SWIDTH 480 0
DWIDTH 9 0
BBX 14 18 -2 -2
BITMAP
03f8
0300
0300
07c0
0600
0600
0c00
0c00
0000
07f0
0600
0600
0f80
0c00
0c00
1800
1800
0000
ENDCHAR
STARTCHAR 05
ENCODING 5
SWIDTH 480 0
DWIDTH 9 0
BBX 14 18 -2 -2
BITMAP
03e0
0630
0600
0c00
0c00
0c00
0cc0
0780
0000
0fc0
0c60
0cc0
1f80
1b00
1b00
3300
3180
0000
ENDCHAR
STARTCHAR 06
ENCODING 6
SWIDTH 480 0
DWIDTH 9 0
BBX 14 18 -2 -2
BITMAP
0300
0300
0300
0600
0600
0600
0c00
0fe0
0000
07f0
0600
0600
0fc0
0c00
0c00
1800
1800
0000
ENDCHAR
STARTCHAR 07
ENCODING 7
SWIDTH 480 0
DWIDTH 9 0
BBX 14 18 -2 -2
BITMAP
0000
0000
01c0
0360
0630
0660
06c0
0380
0000
0000
0000
0000
0000
0000
0000
0000
0000
0000
ENDCHAR
STARTCHAR    8
ENCODING 8
SWIDTH 480 0
DWIDTH 9 0
BBX 14 18 -2 -2
BITMAP
0000
0000
0000
0000
00c0
00c0
0180
0ff0
0180
0300
0300
0000
0000
0000
3fc0
0000
0000
0000
ENDCHAR
STARTCHAR    9
ENCODING 9
SWIDTH 480 0
DWIDTH 9 0
BBX 14 18 -2 -2
BITMAP
0718
0718
0718
0d30
0db0
0db0
19a0
19a0
18e0
0c00
0c00
0c00
1800
1800
1800
3000
3f80
0000
ENDCHAR
STARTCHAR    a
ENCODING 10
SWIDTH 480 0
DWIDTH 9 0
BBX 14 18 -2 -2
BITMAP
0660
0660
0660
0cc0
0cc0
0d80
0d00
0600
0000
07e0
0180
0180
0300
0300
0300
0600
0600
0000
ENDCHAR
STARTCHAR    b
ENCODING 11
SWIDTH 480 0
DWIDTH 9 0
BBX 14 18 -2 -2
BITMAP
0060
0060
0060
00c0
00c0
00c0
0180
0180
0180
3f00
0000
0000
0000
0000
0000
0000
0000
0000
ENDCHAR
STARTCHAR    c
ENCODING 12
SWIDTH 480 0
DWIDTH 9 0
BBX 14 18 -2 -2
BITMAP
0000
0000
0000
0000
0000
0000
0000
0000
0000
3f00
0300
0300
0600
0600
0600
0c00
0c00
0c00
ENDCHAR
STARTCHAR    d
ENCODING 13
SWIDTH 480 0
DWIDTH 9 0
BBX 14 18 -2 -2
BITMAP
0000
0000
0000
0000
0000
0000
0000
0000
0000
03f0
0300
0300
0600
0600
0600
0c00
0c00
0c00
ENDCHAR
STARTCHAR    e
ENCODING 14
SWIDTH 480 0
DWIDTH 9 0
BBX 14 18 -2 -2
BITMAP
0060
0060
0060
00c0
00c0
00c0
0180
0180
0180
03f0
0000
0000
0000
0000
0000
0000
0000
0000
ENDCHAR
STARTCHAR    f
ENCODING 15
SWIDTH 480 0
DWIDTH 9 0
BBX 14 18 -2 -2
BITMAP
0060
0060
0060
00c0
00c0
00c0
0180
0180
0180
3ff0
0300
0300
0600
0600
0600
0c00
0c00
0c00
ENDCHAR
STARTCHAR   10
ENCODING 16
SWIDTH 480 0
DWIDTH 9 0
BBX 14 18 -2 -2
BITMAP
0000
0000
07fe
0000
0000
0000
0000
0000
0000
0000
0000
0000
0000
0000
0000
0000
0000
0000
ENDCHAR
STARTCHAR   11
ENCODING 17
SWIDTH 480 0
DWIDTH 9 0
BBX 14 18 -2 -2
BITMAP
0000
0000
0000
0000
0000
0ffc
0000
0000
0000
0000
0000
0000
0000
0000
0000
0000
0000
0000
ENDCHAR
STARTCHAR   12
ENCODING 18
SWIDTH 480 0
DWIDTH 9 0
BBX 14 18 -2 -2
BITMAP
0000
0000
0000
0000
0000
0000
0000
0000
0000
3ff0
0000
0000
0000
0000
0000
0000
0000
0000
ENDCHAR
STARTCHAR   13
ENCODING 19
SWIDTH 480 0
DWIDTH 9 0
BBX 14 18 -2 -2
BITMAP
0000
0000
0000
0000
0000
0000
0000
0000
0000
0000
0000
0000
7fe0
0000
0000
0000
0000
0000
ENDCHAR
STARTCHAR   14
ENCODING 20
SWIDTH 480 0
DWIDTH 9 0
BBX 14 18 -2 -2
BITMAP
0000
0000
0000
0000
0000
0000
0000
0000
0000
0000
0000
0000
0000
0000
0000
0000
ffc0
0000
ENDCHAR
STARTCHAR   15
ENCODING 21
SWIDTH 480 0
DWIDTH 9 0
BBX 14 18 -2 -2
BITMAP
0060
0060
0060
00c0
00c0
00c0
0180
0180
0180
03f0
0300
0300
0600
0600
0600
0c00
0c00
0c00
ENDCHAR
STARTCHAR   16
ENCODING 22
SWIDTH 480 0
DWIDTH 9 0
BBX 14 18 -2 -2
BITMAP
0060
0060
0060
00c0
00c0
00c0
0180
0180
0180
3f00
0300
0300
0600
0600
0600
0c00
0c00
0c00
ENDCHAR
STARTCHAR   17
ENCODING 23
SWIDTH 480 0
DWIDTH 9 0
BBX 14 18 -2 -2
BITMAP
0060
0060
0060
00c0
00c0
00c0
0180
0180
0180
3ff0
0000
0000
0000
0000
0000
0000
0000
0000
ENDCHAR
STARTCHAR   18
ENCODING 24
SWIDTH 480 0
DWIDTH 9 0
BBX 14 18 -2 -2
BITMAP
0000
0000
0000
0000
0000
0000
0000
0000
0000
3ff0
0300
0300
0600
0600
0600
0c00
0c00
0c00
ENDCHAR
STARTCHAR   19
ENCODING 25
SWIDTH 480 0
DWIDTH 9 0
BBX 14 18 -2 -2
BITMAP
0060
0060
0060
00c0
00c0
00c0
0180
0180
0180
0300
0300
0300
0600
0600
0600
0c00
0c00
0c00
ENDCHAR
STARTCHAR   1a
ENCODING 26
SWIDTH 480 0
DWIDTH 9 0
BBX 14 18 -2 -2
BITMAP
0000
0000
003c
00e0
0380
0e00
0300
01c0
0070
0000
0000
3fe0
0000
0000
7fc0
0000
0000
0000
ENDCHAR
STARTCHAR   1b
ENCODING 27
SWIDTH 480 0
DWIDTH 9 0
BBX 14 18 -2 -2
BITMAP
0000
0000
0700
0180
00e0
0078
01c0
0700
1c00
0000
0000
3fe0
0000
0000
7fc0
0000
0000
0000
ENDCHAR
STARTCHAR   1c
ENCODING 28
SWIDTH 480 0
DWIDTH 9 0
BBX 14 18 -2 -2
BITMAP
0000
0000
0000
0000
0000
0000
0000
0000
1ff0
0d80
0d80
0d80
1b00
1b00
3300
e180
0000
0000
ENDCHAR
STARTCHAR   1d
ENCODING 29
SWIDTH 480 0
DWIDTH 9 0
BBX 14 18 -2 -2
BITMAP
0000
0000
0000
0000
0000
0038
0060
1ff0
0380
0600
3fe0
3800
6000
0000
0000
0000
0000
0000
ENDCHAR
STARTCHAR   1e
ENCODING 30
SWIDTH 480 0
DWIDTH 9 0
BBX 14 18 -2 -2
BITMAP
0000
0000
0000
0000
01e0
0330
0600
0600
0600
0c00
3fc0
0c00
1800
1800
7f00
d180
6000
0000
ENDCHAR
STARTCHAR   1f
ENCODING 31
SWIDTH 480 0
DWIDTH 9 0
BBX 14 18 -2 -2
BITMAP
0000
0000
0000
0000
0000
0000
0000
0000
0000
0300
0000
0000
0000
0000
0000
0000
0000
0000
ENDCHAR
STARTCHAR 20
ENCODING 32
SWIDTH 480 0
DWIDTH 9 0
BBX 14 18 -2 -2
BITMAP
0000
0000
0000
0000
0000
0000
0000
0000
0000
0000
0000
0000
0000
0000
0000
0000
0000
0000
ENDCHAR
STARTCHAR 21
ENCODING 33
SWIDTH 480 0
DWIDTH 9 0
BBX 14 18 -2 -2
BITMAP
0000
0060
00f0
01e0
01e0
01e0
03c0
0180
0180
0300
0300
0300
0000
0000
0000
0c00
0c00
0000
ENDCHAR
STARTCHAR 22
ENCODING 34
SWIDTH 480 0
DWIDTH 9 0
BBX 14 18 -2 -2
BITMAP
0000
03b8
03b8
0330
0330
0660
0000
0000
0000
0000
0000
0000
0000
0000
0000
0000
0000
0000
ENDCHAR
STARTCHAR 23
ENCODING 35
SWIDTH 480 0
DWIDTH 9 0
BBX 14 18 -2 -2
BITMAP
0000
00d8
00d8
01b0
01b0
07fc
0360
06c0
06c0
0d80
0d80
3fe0
1b00
3600
3600
6c00
6c00
0000
ENDCHAR
STARTCHAR 24
ENCODING 36
SWIDTH 480 0
DWIDTH 9 0
BBX 14 18 -2 -2
BITMAP
0060
01f0
0368
06d8
0cd8
0cd8
0d80
0d80
07c0
0340
0360
3360
66c0
66c0
3680
1f00
0c00
0c00
ENDCHAR
STARTCHAR 25
ENCODING 37
SWIDTH 480 0
DWIDTH 9 0
BBX 14 18 -2 -2
BITMAP
0006
0306
068c
0d98
0db0
0da0
0d60
06c0
0180
0300
06c0
0da0
0d60
1b60
3360
6340
c180
c000
ENDCHAR
STARTCHAR 26
ENCODING 38
SWIDTH 480 0
DWIDTH 9 0
BBX 14 18 -2 -2
BITMAP
0000
00e0
01b0
0330
0630
0660
06c0
0300
0e80
1980
3180
30f0
60c0
61a0
3700
1c00
0000
0000
ENDCHAR
STARTCHAR 27
ENCODING 39
SWIDTH 480 0
DWIDTH 9 0
BBX 14 18 -2 -2
BITMAP
0000
0380
0380
0300
0300
0600
0000
0000
0000
0000
0000
0000
0000
0000
0000
0000
0000
0000
ENDCHAR
STARTCHAR 28
ENCODING 40
SWIDTH 480 0
DWIDTH 9 0
BBX 14 18 -2 -2
BITMAP
0018
0030
0060
00c0
0180
0300
0600
0600
0600
0c00
0c00
0c00
0c00
0c00
0c00
0c00
0600
0300
ENDCHAR
STARTCHAR 29
ENCODING 41
SWIDTH 480 0
DWIDTH 9 0
BBX 14 18 -2 -2
BITMAP
0300
0180
00c0
00c0
00c0
00c0
00c0
00c0
00c0
0180
0180
0300
0300
0600
0c00
1800
3000
6000
ENDCHAR
STARTCHAR 2a
ENCODING 42
SWIDTH 480 0
DWIDTH 9 0
BBX 14 18 -2 -2
BITMAP
0000
0000
0000
0000
0000
00c0
0db0
06a0
07c0
0d40
1b60
0300
0000
0000
0000
0000
0000
0000
ENDCHAR
STARTCHAR 2b
ENCODING 43
SWIDTH 480 0
DWIDTH 9 0
BBX 14 18 -2 -2
BITMAP
0000
0000
0000
0000
00c0
00c0
0180
0180
0ff0
0300
0300
0300
0600
0000
0000
0000
0000
0000
ENDCHAR
STARTCHAR 2c
ENCODING 44
SWIDTH 480 0
DWIDTH 9 0
BBX 14 18 -2 -2
BITMAP
0000
0000
0000
0000
0000
0000
0000
0000
0000
0000
0000
0000
0000
3800
3800
3000
3000
6000
ENDCHAR
STARTCHAR 2d
ENCODING 45
SWIDTH 480 0
DWIDTH 9 0
BBX 14 18 -2 -2
BITMAP
0000
0000
0000
0000
0000
0000
0000
0000
0ff0
0000
0000
0000
0000
0000
0000
0000
0000
0000
ENDCHAR
STARTCHAR 2e
ENCODING 46
SWIDTH 480 0
DWIDTH 9 0
BBX 14 18 -2 -2
BITMAP
0000
0000
0000
0000
0000
0000
0000
0000
0000
0000
0000
0000
0000
0000
3800
7000
0000
0000
ENDCHAR
STARTCHAR 2f
ENCODING 47
SWIDTH 480 0
DWIDTH 9 0
BBX 14 18 -2 -2
BITMAP
000c
000c
0018
0030
0060
00c0
00c0
0180
0300
0600
0c00
1800
1800
3000
6000
c000
0000
0000
ENDCHAR
STARTCHAR 30
ENCODING 48
SWIDTH 480 0
DWIDTH 9 0
BBX 14 18 -2 -2
BITMAP
0000
00e0
01b0
0330
0618
0618
0c30
0c30
0c30
1860
1860
18c0
18c0
1980
1b00
0e00
0000
0000
ENDCHAR
STARTCHAR 31
ENCODING 49
SWIDTH 480 0
DWIDTH 9 0
BBX 14 18 -2 -2
BITMAP
0000
0060
0060
01c0
0340
06c0
0180
0180
0180
0300
0300
0300
0600
0600
0600
0c00
0000
0000
ENDCHAR
STARTCHAR 32
ENCODING 50
SWIDTH 480 0
DWIDTH 9 0
BBX 14 18 -2 -2
BITMAP
0000
00f0
0198
0318
0618
0618
0c30
0030
0060
00c0
0180
0700
0c00
1800
3000
7f80
0000
0000
ENDCHAR
STARTCHAR 33
ENCODING 51
SWIDTH 480 0
DWIDTH 9 0
BBX 14 18 -2 -2
BITMAP
0000
00f0
0198
0318
0618
0018
0030
0060
0380
00c0
0060
0060
30c0
30c0
1b80
0e00
0000
0000
ENDCHAR
STARTCHAR 34
ENCODING 52
SWIDTH 480 0
DWIDTH 9 0
BBX 14 18 -2 -2
BITMAP
0000
0030
0070
00e0
01a0
0360
06c0
0cc0
18c0
3180
3fe0
0180
0300
0300
0300
0600
0000
0000
ENDCHAR
STARTCHAR 35
ENCODING 53
SWIDTH 480 0
DWIDTH 9 0
BBX 14 18 -2 -2
BITMAP
0000
01f8
0180
0300
0300
0600
0c00
0dc0
0e60
0060
0060
1860
30c0
30c0
1b80
0e00
0000
0000
ENDCHAR
STARTCHAR 36
ENCODING 54
SWIDTH 480 0
DWIDTH 9 0
BBX 14 18 -2 -2
BITMAP
0000
00f0
0198
0318
0600
0600
0c00
0dc0
0e60
1860
1860
1860
30c0
30c0
1b80
0e00
0000
0000
ENDCHAR
STARTCHAR 37
ENCODING 55
SWIDTH 480 0
DWIDTH 9 0
BBX 14 18 -2 -2
BITMAP
0000
07fc
000c
0018
0030
0060
00c0
0180
0300
0300
0600
0600
0c00
0c00
0c00
1800
0000
0000
ENDCHAR
STARTCHAR 38
ENCODING 56
SWIDTH 480 0
DWIDTH 9 0
BBX 14 18 -2 -2
BITMAP
0000
00f0
0198
0318
0618
0618
0630
0660
0780
0cc0
1860
1860
30c0
30c0
1b80
0e00
0000
0000
ENDCHAR
STARTCHAR 39
ENCODING 57
SWIDTH 480 0
DWIDTH 9 0
BBX 14 18 -2 -2
BITMAP
0000
00f0
0198
0318
0618
0618
0c30
0c30
06f0
03a0
0060
0060
30c0
30c0
1b80
0e00
0000
0000
ENDCHAR
STARTCHAR 3a
ENCODING 58
SWIDTH 480 0
DWIDTH 9 0
BBX 14 18 -2 -2
BITMAP
0000
0000
0000
0000
01c0
01c0
0000
0000
0000
0000
0000
0000
0e00
0e00
0000
0000
0000
0000
ENDCHAR
STARTCHAR 3b
ENCODING 59
SWIDTH 480 0
DWIDTH 9 0
BBX 14 18 -2 -2
BITMAP
0000
0000
0000
0000
01c0
01c0
0000
0000
0000
0000
0000
0000
0e00
0e00
0600
0c00
1800
0000
ENDCHAR
STARTCHAR 3c
ENCODING 60
SWIDTH 480 0
DWIDTH 9 0
BBX 14 18 -2 -2
BITMAP
0000
0000
001c
0030
0060
01c0
0300
0600
0c00
0c00
0600
0300
0300
0180
00c0
0000
0000
0000
ENDCHAR
STARTCHAR 3d
ENCODING 61
SWIDTH 480 0
DWIDTH 9 0
BBX 14 18 -2 -2
BITMAP
0000
0000
0000
0000
0000
0000
1ff0
0000
0000
0000
3fe0
0000
0000
0000
0000
0000
0000
0000
ENDCHAR
STARTCHAR 3e
ENCODING 62
SWIDTH 480 0
DWIDTH 9 0
BBX 14 18 -2 -2
BITMAP
0000
0000
0300
0300
0180
00c0
00c0
0060
0070
00c0
0180
0700
0c00
1800
3000
0000
0000
0000
ENDCHAR
STARTCHAR 3f
ENCODING 63
SWIDTH 480 0
DWIDTH 9 0
BBX 14 18 -2 -2
BITMAP
0000
00f0
0198
0318
0618
0618
0030
0060
00c0
0180
0300
0300
0000
0000
0000
0c00
0c00
0000
ENDCHAR
STARTCHAR 40
ENCODING 64
SWIDTH 480 0
DWIDTH 9 0
BBX 14 18 -2 -2
BITMAP
0000
0000
01e0
0330
0618
0c18
0dd8
1a68
1a68
34d0
34d0
37b0
3000
30c0
1b80
0e00
0000
0000
ENDCHAR
STARTCHAR 41
ENCODING 65
SWIDTH 480 0
DWIDTH 9 0
BBX 14 18 -2 -2
BITMAP
0060
0060
00e0
01a0
01a0
0360
0660
0660
0c60
1860
1fe0
3060
3060
6060
6060
c0c0
0000
0000
ENDCHAR
STARTCHAR 42
ENCODING 66
SWIDTH 480 0
DWIDTH 9 0
BBX 14 18 -2 -2
BITMAP
0000
07e0
0630
0c30
0c30
0c60
1860
18c0
1fc0
30c0
3060
3060
60c0
60c0
6380
fe00
0000
0000
ENDCHAR
STARTCHAR 43
ENCODING 67
SWIDTH 480 0
DWIDTH 9 0
BBX 14 18 -2 -2
BITMAP
0000
01e0
0330
0630
0c18
0c00
1800
1800
1800
3000
3000
3000
30c0
3180
3300
1e00
0000
0000
ENDCHAR
STARTCHAR 44
ENCODING 68
SWIDTH 480 0
DWIDTH 9 0
BBX 14 18 -2 -2
BITMAP
0000
07c0
0660
0c30
0c30
0c30
1830
1830
1830
3060
3060
30c0
60c0
6180
6700
fc00
0000
0000
ENDCHAR
STARTCHAR 45
ENCODING 69
SWIDTH 480 0
DWIDTH 9 0
BBX 14 18 -2 -2
BITMAP
0000
07fc
0600
0c00
0c00
0c00
1800
1800
1fe0
3000
3000
3000
6000
6000
6000
ff80
0000
0000
ENDCHAR
STARTCHAR 46
ENCODING 70
SWIDTH 480 0
DWIDTH 9 0
BBX 14 18 -2 -2
BITMAP
0000
07fc
0600
0c00
0c00
0c00
1800
1800
1fe0
3000
3000
3000
6000
6000
6000
c000
0000
0000
ENDCHAR
STARTCHAR 47
ENCODING 71
SWIDTH 480 0
DWIDTH 9 0
BBX 14 18 -2 -2
BITMAP
0000
00f0
0198
0318
0600
0c00
1800
1800
19f0
3060
3060
3060
30c0
30c0
1bc0
0e80
0000
0000
ENDCHAR
STARTCHAR 48
ENCODING 72
SWIDTH 480 0
DWIDTH 9 0
BBX 14 18 -2 -2
BITMAP
0000
060c
060c
0c18
0c18
0c18
1830
1830
1ff0
3060
3060
3060
60c0
60c0
60c0
c180
0000
0000
ENDCHAR
STARTCHAR 49
ENCODING 73
SWIDTH 480 0
DWIDTH 9 0
BBX 14 18 -2 -2
BITMAP
0000
01f8
0060
00c0
00c0
00c0
0180
0180
0180
0300
0300
0300
0600
0600
0600
3f00
0000
0000
ENDCHAR
STARTCHAR 4a
ENCODING 74
SWIDTH 480 0
DWIDTH 9 0
BBX 14 18 -2 -2
BITMAP
0000
000c
000c
0018
0018
0018
0030
0030
0030
0060
0060
0060
30c0
30c0
1b80
0e00
0000
0000
ENDCHAR
STARTCHAR 4b
ENCODING 75
SWIDTH 480 0
DWIDTH 9 0
BBX 14 18 -2 -2
BITMAP
0000
060c
0618
0c30
0c60
0cc0
1980
1b00
1d00
3300
3180
3180
6180
6180
6180
c180
0000
0000
ENDCHAR
STARTCHAR 4c
ENCODING 76
SWIDTH 480 0
DWIDTH 9 0
BBX 14 18 -2 -2
BITMAP
0000
0600
0600
0c00
0c00
0c00
1800
1800
1800
3000
3000
3000
6000
6000
6000
ff80
0000
0000
ENDCHAR
STARTCHAR 4d
ENCODING 77
SWIDTH 480 0
DWIDTH 9 0
BBX 14 18 -2 -2
BITMAP
0000
060c
060c
0c18
0e38
0e38
1c70
1c70
1cd0
35a0
35a0
3560
6d40
6ec0
6ec0
dd80
0000
0000
ENDCHAR
STARTCHAR 4e
ENCODING 78
SWIDTH 480 0
DWIDTH 9 0
BBX 14 18 -2 -2
BITMAP
0000
060c
070c
0e18
0d18
0d18
1b30
1b30
1b30
3360
3360
3360
6340
61c0
61c0
c180
0000
0000
ENDCHAR
STARTCHAR 4f
ENCODING 79
SWIDTH 480 0
DWIDTH 9 0
BBX 14 18 -2 -2
BITMAP
0000
01f0
0318
0618
0c18
0c18
1830
1830
1830
3060
3060
3060
60c0
60c0
3380
1e00
0000
0000
ENDCHAR
STARTCHAR 50
ENCODING 80
SWIDTH 480 0
DWIDTH 9 0
BBX 14 18 -2 -2
BITMAP
0000
07f0
0618
0c18
0c18
0c18
1830
1860
1fc0
3000
3000
3000
6000
6000
6000
c000
0000
0000
ENDCHAR
STARTCHAR 51
ENCODING 81
SWIDTH 480 0
DWIDTH 9 0
BBX 14 18 -2 -2
BITMAP
0000
01e0
0330
0630
0c18
0c18
1830
1830
1830
3060
3060
3f60
71c0
3180
3300
1d00
0600
0380
ENDCHAR
STARTCHAR 52
ENCODING 82
SWIDTH 480 0
DWIDTH 9 0
BBX 14 18 -2 -2
BITMAP
0000
07f0
0618
0c18
0c18
0c18
1830
1860
1fc0
3180
3180
3180
6180
6180
6180
c180
0000
0000
ENDCHAR
STARTCHAR 53
ENCODING 83
SWIDTH 480 0
DWIDTH 9 0
BBX 14 18 -2 -2
BITMAP
0000
01f0
0318
0618
0c18
0c18
0c00
0600
0380
00c0
0060
3060
60c0
60c0
3380
1e00
0000
0000
ENDCHAR
STARTCHAR 54
ENCODING 84
SWIDTH 480 0
DWIDTH 9 0
BBX 14 18 -2 -2
BITMAP
0000
07fe
0060
00c0
00c0
00c0
0180
0180
0180
0300
0300
0300
0600
0600
0600
0c00
0000
0000
ENDCHAR
STARTCHAR 55
ENCODING 85
SWIDTH 480 0
DWIDTH 9 0
BBX 14 18 -2 -2
BITMAP
0000
060c
060c
0c18
0c18
0c18
1830
1830
1830
3060
3060
30c0
30c0
3180
3300
1e00
0000
0000
ENDCHAR
STARTCHAR 56
ENCODING 86
SWIDTH 480 0
DWIDTH 9 0
BBX 14 18 -2 -2
BITMAP
0000
060c
060c
0c18
0c18
0c30
0c60
0c60
0cc0
0cc0
0d80
0d00
0d00
0e00
0e00
1c00
0000
0000
ENDCHAR
STARTCHAR 57
ENCODING 87
SWIDTH 480 0
DWIDTH 9 0
BBX 14 18 -2 -2
BITMAP
0000
0666
0666
0ccc
0ccc
0cd8
0dd8
0d50
0d50
1aa0
1aa0
1cc0
1980
1980
1980
3300
0000
0000
ENDCHAR
STARTCHAR 58
ENCODING 88
SWIDTH 480 0
DWIDTH 9 0
BBX 14 18 -2 -2
BITMAP
0000
060c
0618
0618
0630
0660
06c0
0380
0680
0700
0d80
1980
1980
3180
6180
c180
0000
0000
ENDCHAR
STARTCHAR 59
ENCODING 89
SWIDTH 480 0
DWIDTH 9 0
BBX 14 18 -2 -2
BITMAP
0000
0618
0630
0630
0660
06c0
06c0
0680
0700
0d00
0600
0600
0c00
0c00
0c00
1800
0000
0000
ENDCHAR
STARTCHAR 5a
ENCODING 90
SWIDTH 480 0
DWIDTH 9 0
BBX 14 18 -2 -2
BITMAP
0000
07fc
0018
0030
0060
00c0
00c0
0180
0300
0600
0c00
1800
1800
3000
6000
ff80
0000
0000
ENDCHAR
STARTCHAR 5b
ENCODING 91
SWIDTH 480 0
DWIDTH 9 0
BBX 14 18 -2 -2
BITMAP
00fc
00c0
00c0
0180
0180
0180
0300
0300
0300
0600
0600
0600
0c00
0c00
0c00
1800
1f80
0000
ENDCHAR
STARTCHAR 5c
ENCODING 92
SWIDTH 480 0
DWIDTH 9 0
BBX 14 18 -2 -2
BITMAP
030c
030c
0318
0318
0330
0360
0360
0340
0ff0
0300
1fe0
0300
0600
0600
0600
0c00
0000
0000
ENDCHAR
STARTCHAR 5d
ENCODING 93
SWIDTH 480 0
DWIDTH 9 0
BBX 14 18 -2 -2
BITMAP
03f0
0030
0030
0060
0060
0060
00c0
00c0
00c0
0180
0180
0180
0300
0300
0300
0600
7e00
0000
ENDCHAR
STARTCHAR 5e
ENCODING 94
SWIDTH 480 0
DWIDTH 9 0
BBX 14 18 -2 -2
BITMAP
0000
00e0
03b0
0630
0c18
0000
0000
0000
0000
0000
0000
0000
0000
0000
0000
0000
0000
0000
ENDCHAR
STARTCHAR 5f
ENCODING 95
SWIDTH 480 0
DWIDTH 9 0
BBX 14 18 -2 -2
BITMAP
0000
0000
0000
0000
0000
0000
0000
0000
0000
0000
0000
0000
0000
0000
0000
ffc0
0000
0000
ENDCHAR
STARTCHAR 60
ENCODING 96
SWIDTH 480 0
DWIDTH 9 0
BBX 14 18 -2 -2
BITMAP
01c0
01c0
0180
0180
0180
0000
0000
0000
0000
0000
0000
0000
0000
0000
0000
0000
0000
0000
ENDCHAR
STARTCHAR 61
ENCODING 97
SWIDTH 480 0
DWIDTH 9 0
BBX 14 18 -2 -2
BITMAP
0000
0000
0000
0000
0000
0000
0000
07c0
0c60
0060
0060
0fe0
18c0
30c0
33c0
1e80
0000
0000
ENDCHAR
STARTCHAR 62
ENCODING 98
SWIDTH 480 0
DWIDTH 9 0
BBX 14 18 -2 -2
BITMAP
0000
0600
0600
0c00
0c00
0c00
1800
1bc0
1c60
3060
3060
3060
60c0
60c0
7380
de00
0000
0000
ENDCHAR
STARTCHAR 63
ENCODING 99
SWIDTH 480 0
DWIDTH 9 0
BBX 14 18 -2 -2
BITMAP
0000
0000
0000
0000
0000
0000
0000
07c0
0c60
1860
3000
3000
6000
60c0
3380
1e00
0000
0000
ENDCHAR
STARTCHAR 64
ENCODING 100
SWIDTH 480 0
DWIDTH 9 0
BBX 14 18 -2 -2
BITMAP
0000
000c
000c
0018
0018
0018
0030
07d0
0c70
1860
3060
3060
60c0
60c0
33c0
1e80
0000
0000
ENDCHAR
STARTCHAR 65
ENCODING 101
SWIDTH 480 0
DWIDTH 9 0
BBX 14 18 -2 -2
BITMAP
0000
0000
0000
0000
0000
0000
0000
07c0
0c60
1860
3060
3fe0
6000
60c0
3380
1e00
0000
0000
ENDCHAR
STARTCHAR 66
ENCODING 102
SWIDTH 480 0
DWIDTH 9 0
BBX 14 18 -2 -2
BITMAP
0000
0000
0070
00d8
0180
0180
0300
0fe0
0300
0600
0600
0600
0c00
0c00
0c00
1800
0000
0000
ENDCHAR
STARTCHAR 67
ENCODING 103
SWIDTH 480 0
DWIDTH 9 0
BBX 14 18 -2 -2
BITMAP
0000
0000
0000
0000
0000
0000
0000
03b0
06c0
0cc0
0cc0
0780
0c00
1f00
3180
6180
6180
3f00
ENDCHAR
STARTCHAR 68
ENCODING 104
SWIDTH 480 0
DWIDTH 9 0
BBX 14 18 -2 -2
BITMAP
0000
0300
0300
0600
0600
0600
0c00
0dc0
0e60
1860
1860
1860
30c0
30c0
30c0
6180
0000
0000
ENDCHAR
STARTCHAR 69
ENCODING 105
SWIDTH 480 0
DWIDTH 9 0
BBX 14 18 -2 -2
BITMAP
0000
0000
0000
00c0
00c0
0000
0000
0380
0180
0300
0300
0300
0600
0600
0600
0c00
0000
0000
ENDCHAR
STARTCHAR 6a
ENCODING 106
SWIDTH 480 0
DWIDTH 9 0
BBX 14 18 -2 -2
BITMAP
0000
0000
0000
0030
0030
0000
0000
0060
0060
00c0
00c0
00c0
0180
0180
0180
0300
6600
3c00
ENDCHAR
STARTCHAR 6b
ENCODING 107
SWIDTH 480 0
DWIDTH 9 0
BBX 14 18 -2 -2
BITMAP
0000
0300
0300
0600
0600
0600
0c00
0c60
0dc0
1b00
1a00
1e00
3600
3300
3180
6180
0000
0000
ENDCHAR
STARTCHAR 6c
ENCODING 108
SWIDTH 480 0
DWIDTH 9 0
BBX 14 18 -2 -2
BITMAP
0000
01e0
0060
00c0
00c0
00c0
0180
0180
0180
0300
0300
0300
0600
0600
0600
0c00
0000
0000
ENDCHAR
STARTCHAR 6d
ENCODING 109
SWIDTH 480 0
DWIDTH 9 0
BBX 14 18 -2 -2
BITMAP
0000
0000
0000
0000
0000
0000
0000
1ac0
1fa0
3660
3660
3660
6cc0
6cc0
6cc0
d980
0000
0000
ENDCHAR
STARTCHAR 6e
ENCODING 110
SWIDTH 480 0
DWIDTH 9 0
BBX 14 18 -2 -2
BITMAP
0000
0000
0000
0000
0000
0000
0000
0dc0
0f60
1c60
1860
1860
30c0
30c0
30c0
6180
0000
0000
ENDCHAR
STARTCHAR 6f
ENCODING 111
SWIDTH 480 0
DWIDTH 9 0
BBX 14 18 -2 -2
BITMAP
0000
0000
0000
0000
0000
0000
0000
07c0
0c60
1860
3060
3060
60c0
60c0
3380
1e00
0000
0000
ENDCHAR
STARTCHAR 70
ENCODING 112
SWIDTH 480 0
DWIDTH 9 0
BBX 14 18 -2 -2
BITMAP
0000
0000
0000
0000
0000
0000
0000
1bc0
1c60
3060
3060
3060
60c0
7180
6f00
c000
c000
c000
ENDCHAR
STARTCHAR 71
ENCODING 113
SWIDTH 480 0
DWIDTH 9 0
BBX 14 18 -2 -2
BITMAP
0000
0000
0000
0000
0000
0000
0000
07d0
0c70
1860
3060
3060
30c0
31c0
1f40
0180
0180
0180
ENDCHAR
STARTCHAR 72
ENCODING 114
SWIDTH 480 0
DWIDTH 9 0
BBX 14 18 -2 -2
BITMAP
0000
0000
0000
0000
0000
0000
0000
0dc0
0f60
1c00
1800
1800
3000
3000
3000
6000
0000
0000
ENDCHAR
STARTCHAR 73
ENCODING 115
SWIDTH 480 0
DWIDTH 9 0
BBX 14 18 -2 -2
BITMAP
0000
0000
0000
0000
0000
0000
0000
07c0
0c60
1860
1800
0f80
00c0
30c0
3180
1f00
0000
0000
ENDCHAR
STARTCHAR 74
ENCODING 116
SWIDTH 480 0
DWIDTH 9 0
BBX 14 18 -2 -2
BITMAP
0000
0000
0000
0000
0180
0180
0300
0fe0
0300
0600
0600
0600
0c00
0c00
0dc0
0700
0000
0000
ENDCHAR
STARTCHAR 75
ENCODING 117
SWIDTH 480 0
DWIDTH 9 0
BBX 14 18 -2 -2
BITMAP
0000
0000
0000
0000
0000
0000
0000
0c30
0c30
1860
1860
1860
30c0
30c0
1bc0
0e80
0000
0000
ENDCHAR
STARTCHAR 76
ENCODING 118
SWIDTH 480 0
DWIDTH 9 0
BBX 14 18 -2 -2
BITMAP
0000
0000
0000
0000
0000
0000
0000
0c30
0c60
0c60
0cc0
0d80
0d80
0d00
0e00
0c00
0000
0000
ENDCHAR
STARTCHAR 77
ENCODING 119
SWIDTH 480 0
DWIDTH 9 0
BBX 14 18 -2 -2
BITMAP
0000
0000
0000
0000
0000
0000
0000
0db0
0db0
1b60
1aa0
1da0
35c0
1980
1980
3300
0000
0000
ENDCHAR
STARTCHAR 78
ENCODING 120
SWIDTH 480 0
DWIDTH 9 0
BBX 14 18 -2 -2
BITMAP
0000
0000
0000
0000
0000
0000
0000
0c30
0c60
0cc0
0680
0700
0d00
1980
3180
6180
0000
0000
ENDCHAR
STARTCHAR 79
ENCODING 121
SWIDTH 480 0
DWIDTH 9 0
BBX 14 18 -2 -2
BITMAP
0000
0000
0000
0000
0000
0000
0000
1830
1860
18c0
0d80
0d00
0d00
0600
0c00
1800
3000
e000
ENDCHAR
STARTCHAR 7a
ENCODING 122
SWIDTH 480 0
DWIDTH 9 0
BBX 14 18 -2 -2
BITMAP
0000
0000
0000
0000
0000
0000
0000
1ff0
00e0
0180
0300
0e00
1800
3000
6000
ff80
0000
0000
ENDCHAR
STARTCHAR 7b
ENCODING 123
SWIDTH 480 0
DWIDTH 9 0
BBX 14 18 -2 -2
BITMAP
0018
0030
0060
00c0
00c0
00c0
0180
0180
0600
0300
0300
0300
0600
0600
0600
0600
0600
0300
ENDCHAR
STARTCHAR 7c
ENCODING 124
SWIDTH 480 0
DWIDTH 9 0
BBX 14 18 -2 -2
BITMAP
0060
0060
0060
00c0
00c0
00c0
0180
0180
0180
0300
0300
0300
0600
0600
0600
0c00
0c00
0c00
ENDCHAR
STARTCHAR 7d
ENCODING 125
SWIDTH 480 0
DWIDTH 9 0
BBX 14 18 -2 -2
BITMAP
0300
0180
0180
0180
0180
0180
0300
0300
01c0
0300
0600
0600
0c00
0c00
0c00
1800
3000
6000
ENDCHAR
STARTCHAR 7e
ENCODING 126
SWIDTH 480 0
DWIDTH 9 0
BBX 14 18 -2 -2
BITMAP
07fe
0000
0000
0000
0000
0000
0000
0000
0000
0000
0000
0000
0000
0000
0000
0000
0000
0000
ENDCHAR
STARTCHAR   a1
ENCODING 161
SWIDTH 480 0
DWIDTH 9 0
BBX 14 18 -2 -2
BITMAP
0000
0000
0000
0000
0000
0000
0000
0000
0000
0000
0000
0000
0000
1800
3400
3400
1800
0000
ENDCHAR
STARTCHAR   a2
ENCODING 162
SWIDTH 480 0
DWIDTH 9 0
BBX 14 18 -2 -2
BITMAP
0000
01fc
0180
0300
0300
0300
0600
0600
0600
0c00
0c00
0000
0000
0000
0000
0000
0000
0000
ENDCHAR
STARTCHAR   a3
ENCODING 163
SWIDTH 480 0
DWIDTH 9 0
BBX 14 18 -2 -2
BITMAP
0000
0000
0000
0000
0000
0000
0000
0180
0180
0300
0300
0300
0600
0600
0600
0c00
fc00
0000
ENDCHAR
STARTCHAR   a4
ENCODING 164
SWIDTH 480 0
DWIDTH 9 0
BBX 14 18 -2 -2
BITMAP
0000
0000
0000
0000
0000
0000
0000
0000
0000
0000
0000
0000
0000
0000
1800
1800
1800
0000
ENDCHAR
STARTCHAR   a5
ENCODING 165
SWIDTH 480 0
DWIDTH 9 0
BBX 14 18 -2 -2
BITMAP
0000
0000
0000
0000
0000
0000
0000
0000
0380
0700
0000
0000
0000
0000
0000
0000
0000
0000
ENDCHAR
STARTCHAR   a6
ENCODING 166
SWIDTH 480 0
DWIDTH 9 0
BBX 14 18 -2 -2
BITMAP
0000
0000
03fc
0018
0018
0018
0030
0ff0
0030
0060
00c0
0380
0600
0c00
3800
6000
0000
0000
ENDCHAR
STARTCHAR   a7
ENCODING 167
SWIDTH 480 0
DWIDTH 9 0
BBX 14 18 -2 -2
BITMAP
0000
0000
0000
0000
0000
0000
0000
0000
0ff0
0060
0340
0380
0600
0600
0c00
1800
3000
0000
ENDCHAR
STARTCHAR   a8
ENCODING 168
SWIDTH 480 0
DWIDTH 9 0
BBX 14 18 -2 -2
BITMAP
0000
0000
0000
0000
0000
0000
0000
00e0
0180
0180
0700
1d00
3600
0600
0600
0c00
0c00
0000
ENDCHAR
STARTCHAR   a9
ENCODING 169
SWIDTH 480 0
DWIDTH 9 0
BBX 14 18 -2 -2
BITMAP
0000
0000
0000
0000
0000
0000
0000
0180
0180
1fe0
1860
1860
30c0
0180
0700
0c00
1800
0000
ENDCHAR
STARTCHAR   aa
ENCODING 170
SWIDTH 480 0
DWIDTH 9 0
BBX 14 18 -2 -2
BITMAP
0000
0000
0000
0000
0000
0000
0000
0000
0000
0fc0
0300
0300
0600
0600
0600
7f80
0000
0000
ENDCHAR
STARTCHAR   ab
ENCODING 171
SWIDTH 480 0
DWIDTH 9 0
BBX 14 18 -2 -2
BITMAP
0000
0000
0000
0000
0000
0000
0000
0180
0180
3fe0
0300
0300
0e00
1a00
7600
cc00
1c00
0000
ENDCHAR
STARTCHAR   ac
ENCODING 172
SWIDTH 480 0
DWIDTH 9 0
BBX 14 18 -2 -2
BITMAP
0000
0000
0000
0000
0000
0000
0000
0000
0000
0c00
0de0
1f40
3580
0600
0600
0600
0000
0000
ENDCHAR
STARTCHAR   ad
ENCODING 173
SWIDTH 480 0
DWIDTH 9 0
BBX 14 18 -2 -2
BITMAP
0000
0000
0000
0000
0000
0000
0000
0000
0000
1f80
0180
0180
0300
0300
7fc0
0000
0000
0000
ENDCHAR
STARTCHAR   ae
ENCODING 174
SWIDTH 480 0
DWIDTH 9 0
BBX 14 18 -2 -2
BITMAP
0000
0000
0000
0000
0000
0000
0000
0000
0fe0
00c0
00c0
1fc0
0180
0180
0180
7f00
0000
0000
ENDCHAR
STARTCHAR   af
ENCODING 175
SWIDTH 480 0
DWIDTH 9 0
BBX 14 18 -2 -2
BITMAP
0000
0000
0000
0000
0000
0000
0000
0330
0d30
0d60
0c60
00c0
0180
0300
0e00
1800
0000
0000
ENDCHAR
STARTCHAR   b0
ENCODING 176
SWIDTH 480 0
DWIDTH 9 0
BBX 14 18 -2 -2
BITMAP
0000
0000
0000
0000
0000
0000
0000
07e0
0000
0000
0000
0000
0000
0000
0000
0000
0000
0000
ENDCHAR
STARTCHAR   b1
ENCODING 177
SWIDTH 480 0
DWIDTH 9 0
BBX 14 18 -2 -2
BITMAP
0000
0000
07fc
0018
0018
0030
0330
0360
0340
0680
0600
0c00
1800
1800
3000
e000
0000
0000
ENDCHAR
STARTCHAR   b2
ENCODING 178
SWIDTH 480 0
DWIDTH 9 0
BBX 14 18 -2 -2
BITMAP
0000
000c
0018
0018
0030
0060
00c0
0380
0e80
1b00
3300
0300
0600
0600
0600
0c00
0000
0000
ENDCHAR
STARTCHAR   b3
ENCODING 179
SWIDTH 480 0
DWIDTH 9 0
BBX 14 18 -2 -2
BITMAP
0000
00c0
00c0
0180
0ff8
0c18
1830
1830
1860
0060
00c0
0180
0300
0600
1c00
3000
0000
0000
ENDCHAR
STARTCHAR   b4
ENCODING 180
SWIDTH 480 0
DWIDTH 9 0
BBX 14 18 -2 -2
BITMAP
0000
0000
0000
07f8
00c0
00c0
0180
0180
0180
0300
0300
0300
0600
0600
7fe0
0000
0000
0000
ENDCHAR
STARTCHAR   b5
ENCODING 181
SWIDTH 480 0
DWIDTH 9 0
BBX 14 18 -2 -2
BITMAP
0000
0000
0060
00c0
0ff8
00c0
0180
0380
0380
0700
0d00
1b00
3600
6600
0600
0c00
0000
0000
ENDCHAR
STARTCHAR   b6
ENCODING 182
SWIDTH 480 0
DWIDTH 9 0
BBX 14 18 -2 -2
BITMAP
0000
00c0
00c0
0180
0ff8
0198
0330
0330
0630
0660
0c60
0c60
18c0
18c0
3180
e700
0000
0000
ENDCHAR
STARTCHAR   b7
ENCODING 183
SWIDTH 480 0
DWIDTH 9 0
BBX 14 18 -2 -2
BITMAP
0000
0000
0180
0300
0330
0fe0
0300
0300
0300
03e0
3f00
0300
0300
0300
0300
0600
0000
0000
ENDCHAR
STARTCHAR   b8
ENCODING 184
SWIDTH 480 0
DWIDTH 9 0
BBX 14 18 -2 -2
BITMAP
0000
0000
0180
03f8
0318
0618
0630
0c30
1860
30c0
0180
0300
0600
0c00
3800
6000
0000
0000
ENDCHAR
STARTCHAR   b9
ENCODING 185
SWIDTH 480 0
DWIDTH 9 0
BBX 14 18 -2 -2
BITMAP
0000
0000
0300
0600
07f8
0660
0cc0
0cc0
18c0
0180
0180
0300
0600
0c00
3800
6000
0000
0000
ENDCHAR
STARTCHAR   ba
ENCODING 186
SWIDTH 480 0
DWIDTH 9 0
BBX 14 18 -2 -2
BITMAP
0000
0000
0000
0ff8
0018
0018
0030
0030
0030
0060
0060
0060
00c0
7fc0
00c0
0000
0000
0000
ENDCHAR
STARTCHAR   bb
ENCODING 187
SWIDTH 480 0
DWIDTH 9 0
BBX 14 18 -2 -2
BITMAP
0000
0000
0198
0330
0330
0330
1ff0
0660
0660
0cc0
0cc0
0180
0300
0600
1c00
3000
0000
0000
ENDCHAR
STARTCHAR   bc
ENCODING 188
SWIDTH 480 0
DWIDTH 9 0
BBX 14 18 -2 -2
BITMAP
0000
0000
0300
0180
0000
0000
0000
1c30
0660
0060
00c0
0380
0600
0c00
3800
e000
0000
0000
ENDCHAR
STARTCHAR   bd
ENCODING 189
SWIDTH 480 0
DWIDTH 9 0
BBX 14 18 -2 -2
BITMAP
0000
0000
0000
0ff8
0018
0030
0030
0060
00c0
0180
0380
0680
0d80
18c0
70c0
c0c0
0000
0000
ENDCHAR
STARTCHAR   be
ENCODING 190
SWIDTH 480 0
DWIDTH 9 0
BBX 14 18 -2 -2
BITMAP
0000
0000
0300
0600
0600
0600
0df0
0f60
1cc0
1980
1800
1800
3000
3000
3000
1f80
0000
0000
ENDCHAR
STARTCHAR   bf
ENCODING 191
SWIDTH 480 0
DWIDTH 9 0
BBX 14 18 -2 -2
BITMAP
0000
0000
000c
0c18
0c18
0c18
0c30
0c30
0060
00c0
0180
0300
0600
0c00
3800
6000
0000
0000
ENDCHAR
STARTCHAR   c0
ENCODING 192
SWIDTH 480 0
DWIDTH 9 0
BBX 14 18 -2 -2
BITMAP
0000
0180
0180
03f8
0318
0618
0c30
0e30
1b60
3340
0180
0300
0600
0c00
3800
6000
0000
0000
ENDCHAR
STARTCHAR   c1
ENCODING 193
SWIDTH 480 0
DWIDTH 9 0
BBX 14 18 -2 -2
BITMAP
0000
000c
0038
07e0
00c0
00c0
0180
1ff8
0180
0300
0300
0300
0600
0c00
3800
6000
0000
0000
ENDCHAR
STARTCHAR   c2
ENCODING 194
SWIDTH 480 0
DWIDTH 9 0
BBX 14 18 -2 -2
BITMAP
0000
0000
0180
0318
0d18
0d18
0d30
0c30
0c60
00c0
0180
0300
0600
0c00
3800
6000
0000
0000
ENDCHAR
STARTCHAR   c3
ENCODING 195
SWIDTH 480 0
DWIDTH 9 0
BBX 14 18 -2 -2
BITMAP
0000
0000
03f8
0000
0000
0000
0000
1ff0
0180
0300
0300
0300
0600
0c00
3800
6000
0000
0000
ENDCHAR
STARTCHAR   c4
ENCODING 196
SWIDTH 480 0
DWIDTH 9 0
BBX 14 18 -2 -2
BITMAP
0000
0180
0180
0300
0300
0380
0780
06c0
0660
0c60
0c60
0c00
1800
1800
1800
3000
0000
0000
ENDCHAR
STARTCHAR   c5
ENCODING 197
SWIDTH 480 0
DWIDTH 9 0
BBX 14 18 -2 -2
BITMAP
0000
0000
0060
00c0
00c0
0ff8
0180
0180
0180
0300
0300
0600
0600
0c00
3800
6000
0000
0000
ENDCHAR
STARTCHAR   c6
ENCODING 198
SWIDTH 480 0
DWIDTH 9 0
BBX 14 18 -2 -2
BITMAP
0000
0000
0000
07f0
0000
0000
0000
0000
0000
0000
0000
0000
0000
7fc0
0000
0000
0000
0000
ENDCHAR
STARTCHAR   c7
ENCODING 199
SWIDTH 480 0
DWIDTH 9 0
BBX 14 18 -2 -2
BITMAP
0000
0000
03fc
0018
0018
0030
0630
0360
01c0
0180
0340
0660
0c00
1800
7000
c000
0000
0000
ENDCHAR
STARTCHAR   c8
ENCODING 200
SWIDTH 480 0
DWIDTH 9 0
BBX 14 18 -2 -2
BITMAP
0000
00c0
00c0
0180
0ff0
0030
0060
00c0
0180
0380
0ec0
3a60
6c00
0c00
0c00
1800
0000
0000
ENDCHAR
STARTCHAR   c9
ENCODING 201
SWIDTH 480 0
DWIDTH 9 0
BBX 14 18 -2 -2
BITMAP
0000
000c
0018
0018
0030
0030
0060
0060
00c0
0180
0300
0e00
1800
3000
6000
0000
0000
0000
ENDCHAR
STARTCHAR   ca
ENCODING 202
SWIDTH 480 0
DWIDTH 9 0
BBX 14 18 -2 -2
BITMAP
0000
0000
0000
00e0
0060
0360
0660
0660
0660
0c60
0c60
1860
18c0
30c0
60c0
c180
0000
0000
ENDCHAR
STARTCHAR   cb
ENCODING 203
SWIDTH 480 0
DWIDTH 9 0
BBX 14 18 -2 -2
BITMAP
0000
0300
0300
0600
0600
0638
0de0
0f00
0c00
1800
1800
1800
3000
3000
3000
1f80
0000
0000
ENDCHAR
STARTCHAR   cc
ENCODING 204
SWIDTH 480 0
DWIDTH 9 0
BBX 14 18 -2 -2
BITMAP
0000
0000
07fc
0018
0018
0018
0030
0030
0060
00c0
0180
0300
0600
0c00
3800
6000
0000
0000
ENDCHAR
STARTCHAR   cd
ENCODING 205
SWIDTH 480 0
DWIDTH 9 0
BBX 14 18 -2 -2
BITMAP
0000
0000
0000
0300
0300
0380
0700
0d80
1980
3180
00c0
0060
0060
0000
0000
0000
0000
0000
ENDCHAR
STARTCHAR   ce
ENCODING 206
SWIDTH 480 0
DWIDTH 9 0
BBX 14 18 -2 -2
BITMAP
0000
00c0
00c0
0180
0180
0ff8
0300
0300
0d40
1ac0
1ac0
36c0
34c0
6cc0
0c00
3800
0000
0000
ENDCHAR
STARTCHAR   cf
ENCODING 207
SWIDTH 480 0
DWIDTH 9 0
BBX 14 18 -2 -2
BITMAP
0000
0000
0000
0ff8
0018
0030
0030
0060
00c0
1980
0d00
0700
0600
0300
0180
0000
0000
0000
ENDCHAR
STARTCHAR   d0
ENCODING 208
SWIDTH 480 0
DWIDTH 9 0
BBX 14 18 -2 -2
BITMAP
0000
0000
01c0
0060
0030
0000
0000
0700
0180
00c0
0000
0000
3c00
0700
0180
0180
0000
0000
ENDCHAR
STARTCHAR   d1
ENCODING 209
SWIDTH 480 0
DWIDTH 9 0
BBX 14 18 -2 -2
BITMAP
0000
0000
00c0
0180
0180
0180
0300
0300
0600
0cc0
0cc0
1860
33c0
6ec0
78c0
0000
0000
0000
ENDCHAR
STARTCHAR   d2
ENCODING 210
SWIDTH 480 0
DWIDTH 9 0
BBX 14 18 -2 -2
BITMAP
0000
0018
0018
0030
0030
0060
0e60
0340
01c0
01c0
0360
0600
0c00
1800
7000
c000
0000
0000
ENDCHAR
STARTCHAR   d3
ENCODING 211
SWIDTH 480 0
DWIDTH 9 0
BBX 14 18 -2 -2
BITMAP
0000
0000
0000
0ff8
0300
0300
0600
0600
1ff0
0c00
0c00
0c00
1800
1800
0c00
0780
0000
0000
ENDCHAR
STARTCHAR   d4
ENCODING 212
SWIDTH 480 0
DWIDTH 9 0
BBX 14 18 -2 -2
BITMAP
0000
0180
0180
0300
037c
01d8
0718
1d30
0360
0340
0300
0300
0300
0300
0300
0300
0000
0000
ENDCHAR
STARTCHAR   d5
ENCODING 213
SWIDTH 480 0
DWIDTH 9 0
BBX 14 18 -2 -2
BITMAP
0000
0000
0000
0000
0000
07f0
0060
0060
0060
00c0
00c0
00c0
0180
0180
7fe0
0000
0000
0000
ENDCHAR
STARTCHAR   d6
ENCODING 214
SWIDTH 480 0
DWIDTH 9 0
BBX 14 18 -2 -2
BITMAP
0000
0000
07fc
0018
0018
0018
0030
0030
0ff0
0060
0060
0060
00c0
00c0
00c0
ff80
0000
0000
ENDCHAR
STARTCHAR   d7
ENCODING 215
SWIDTH 480 0
DWIDTH 9 0
BBX 14 18 -2 -2
BITMAP
0000
0000
03f8
0000
0000
0000
0000
1ff0
0060
0060
00c0
0180
0300
0600
1c00
7000
0000
0000
ENDCHAR
STARTCHAR   d8
ENCODING 216
SWIDTH 480 0
DWIDTH 9 0
BBX 14 18 -2 -2
BITMAP
0000
0000
0318
0630
0630
0630
0c60
0c60
0c60
18c0
00c0
0180
0300
0600
1c00
3000
0000
0000
ENDCHAR
STARTCHAR   d9
ENCODING 217
SWIDTH 480 0
DWIDTH 9 0
BBX 14 18 -2 -2
BITMAP
0000
0000
0000
00c0
0340
0340
0680
0680
0680
0d30
0d30
1b60
36c0
3680
6700
cc00
0000
0000
ENDCHAR
STARTCHAR   da
ENCODING 218
SWIDTH 480 0
DWIDTH 9 0
BBX 14 18 -2 -2
BITMAP
0000
0000
0300
0600
0600
0600
0c00
0c00
0c00
1860
18c0
1980
3300
3600
3c00
7000
0000
0000
ENDCHAR
STARTCHAR   db
ENCODING 219
SWIDTH 480 0
DWIDTH 9 0
BBX 14 18 -2 -2
BITMAP
0000
0000
0000
0ff8
0c18
0c18
1830
1830
1830
3060
3060
3060
60c0
7fc0
60c0
0000
0000
0000
ENDCHAR
STARTCHAR   dc
ENCODING 220
SWIDTH 480 0
DWIDTH 9 0
BBX 14 18 -2 -2
BITMAP
0000
0000
0000
0ff8
0c18
0c18
1830
1830
1860
0060
00c0
0180
0300
0600
1c00
3000
0000
0000
ENDCHAR
STARTCHAR   dd
ENCODING 221
SWIDTH 480 0
DWIDTH 9 0
BBX 14 18 -2 -2
BITMAP
0000
0000
0000
0000
0e00
0300
0330
0030
0060
0060
00c0
0380
0600
0c00
3800
e000
0000
0000
ENDCHAR
STARTCHAR   de
ENCODING 222
SWIDTH 480 0
DWIDTH 9 0
BBX 14 18 -2 -2
BITMAP
0000
0340
03c0
0340
0000
0000
0000
0000
0000
0000
0000
0000
0000
0000
0000
0000
0000
0000
ENDCHAR
STARTCHAR   df
ENCODING 223
SWIDTH 480 0
DWIDTH 9 0
BBX 14 18 -2 -2
BITMAP
0000
0180
0340
0340
0180
0000
0000
0000
0000
0000
0000
0000
0000
0000
0000
0000
0000
0000
ENDCHAR
STARTCHAR   e0
ENCODING 224
SWIDTH 480 0
DWIDTH 9 0
BBX 14 18 -2 -2
BITMAP
0000
0000
0000
0000
0000
0000
0000
0000
0000
0000
0000
0000
0000
0000
0000
0000
0000
0000
ENDCHAR
STARTCHAR   e1
ENCODING 225
SWIDTH 480 0
DWIDTH 9 0
BBX 14 18 -2 -2
BITMAP
0000
0000
0000
0000
0000
0000
0000
0000
0000
0000
0000
0000
0000
0000
0000
0000
0000
0000
ENDCHAR
STARTCHAR   e2
ENCODING 226
SWIDTH 480 0
DWIDTH 9 0
BBX 14 18 -2 -2
BITMAP
0000
0000
0000
0000
0000
0000
0000
0000
0000
0000
0000
0000
0000
0000
0000
0000
0000
0000
ENDCHAR
STARTCHAR   e3
ENCODING 227
SWIDTH 480 0
DWIDTH 9 0
BBX 14 18 -2 -2
BITMAP
0000
0000
0000
0000
0000
0000
0000
0000
0000
0000
0000
0000
0000
0000
0000
0000
0000
0000
ENDCHAR
STARTCHAR   e4
ENCODING 228
SWIDTH 480 0
DWIDTH 9 0
BBX 14 18 -2 -2
BITMAP
0000
0000
0000
0000
0000
0000
0000
0000
0000
0000
0000
0000
0000
0000
0000
0000
0000
0000
ENDCHAR
STARTCHAR   e5
ENCODING 229
SWIDTH 480 0
DWIDTH 9 0
BBX 14 18 -2 -2
BITMAP
0000
0000
0000
0000
0000
0000
0000
0000
0000
0000
0000
0000
0000
0000
0000
0000
0000
0000
ENDCHAR
STARTCHAR   e6
ENCODING 230
SWIDTH 480 0
DWIDTH 9 0
BBX 14 18 -2 -2
BITMAP
0000
0000
0000
0000
0000
0000
0000
0000
0000
0000
0000
0000
0000
0000
0000
0000
0000
0000
ENDCHAR
STARTCHAR   e7
ENCODING 231
SWIDTH 480 0
DWIDTH 9 0
BBX 14 18 -2 -2
BITMAP
0000
0000
0000
0000
0000
0000
0000
0000
0000
0000
0000
0000
0000
0000
0000
0000
0000
0000
ENDCHAR
STARTCHAR   e8
ENCODING 232
SWIDTH 480 0
DWIDTH 9 0
BBX 14 18 -2 -2
BITMAP
0000
0000
0000
0000
0000
0000
0000
0000
0000
0000
0000
0000
0000
0000
0000
0000
0000
0000
ENDCHAR
STARTCHAR   e9
ENCODING 233
SWIDTH 480 0
DWIDTH 9 0
BBX 14 18 -2 -2
BITMAP
0000
0000
0000
0000
0000
0000
0000
0000
0000
0000
0000
0000
0000
0000
0000
0000
0000
0000
ENDCHAR
STARTCHAR   ea
ENCODING 234
SWIDTH 480 0
DWIDTH 9 0
BBX 14 18 -2 -2
BITMAP
0000
0000
0000
0000
0000
0000
0000
0000
0000
0000
0000
0000
0000
0000
0000
0000
0000
0000
ENDCHAR
STARTCHAR   eb
ENCODING 235
SWIDTH 480 0
DWIDTH 9 0
BBX 14 18 -2 -2
BITMAP
0000
0000
0000
0000
0000
0000
0000
0000
0000
0000
0000
0000
0000
0000
0000
0000
0000
0000
ENDCHAR
STARTCHAR   ec
ENCODING 236
SWIDTH 480 0
DWIDTH 9 0
BBX 14 18 -2 -2
BITMAP
0000
0000
0000
0000
0000
0000
0000
0000
0000
0000
0000
0000
0000
0000
0000
0000
0000
0000
ENDCHAR
STARTCHAR   ed
ENCODING 237
SWIDTH 480 0
DWIDTH 9 0
BBX 14 18 -2 -2
BITMAP
0000
0000
0000
0000
0000
0000
0000
0000
0000
0000
0000
0000
0000
0000
0000
0000
0000
0000
ENDCHAR
STARTCHAR   ee
ENCODING 238
SWIDTH 480 0
DWIDTH 9 0
BBX 14 18 -2 -2
BITMAP
0000
0000
0000
0000
0000
0000
0000
0000
0000
0000
0000
0000
0000
0000
0000
0000
0000
0000
ENDCHAR
STARTCHAR   ef
ENCODING 239
SWIDTH 480 0
DWIDTH 9 0
BBX 14 18 -2 -2
BITMAP
0000
0000
0000
0000
0000
0000
0000
0000
0000
0000
0000
0000
0000
0000
0000
0000
0000
0000
ENDCHAR
STARTCHAR   f0
ENCODING 240
SWIDTH 480 0
DWIDTH 9 0
BBX 14 18 -2 -2
BITMAP
0000
0000
0000
0000
0000
0000
0000
0000
0000
0000
0000
0000
0000
0000
0000
0000
0000
0000
ENDCHAR
STARTCHAR   f1
ENCODING 241
SWIDTH 480 0
DWIDTH 9 0
BBX 14 18 -2 -2
BITMAP
0000
0000
0000
0000
0000
0000
0000
0000
0000
0000
0000
0000
0000
0000
0000
0000
0000
0000
ENDCHAR
STARTCHAR   f2
ENCODING 242
SWIDTH 480 0
DWIDTH 9 0
BBX 14 18 -2 -2
BITMAP
0000
0000
0000
0000
0000
0000
0000
0000
0000
0000
0000
0000
0000
0000
0000
0000
0000
0000
ENDCHAR
STARTCHAR   f3
ENCODING 243
SWIDTH 480 0
DWIDTH 9 0
BBX 14 18 -2 -2
BITMAP
0000
0000
0000
0000
0000
0000
0000
0000
0000
0000
0000
0000
0000
0000
0000
0000
0000
0000
ENDCHAR
STARTCHAR   f4
ENCODING 244
SWIDTH 480 0
DWIDTH 9 0
BBX 14 18 -2 -2
BITMAP
0000
0000
0000
0000
0000
0000
0000
0000
0000
0000
0000
0000
0000
0000
0000
0000
0000
0000
ENDCHAR
STARTCHAR   f5
ENCODING 245
SWIDTH 480 0
DWIDTH 9 0
BBX 14 18 -2 -2
BITMAP
0000
0000
0000
0000
0000
0000
0000
0000
0000
0000
0000
0000
0000
0000
0000
0000
0000
0000
ENDCHAR
STARTCHAR   f6
ENCODING 246
SWIDTH 480 0
DWIDTH 9 0
BBX 14 18 -2 -2
BITMAP
0000
0000
0000
0000
0000
0000
0000
0000
0000
0000
0000
0000
0000
0000
0000
0000
0000
0000
ENDCHAR
STARTCHAR   f7
ENCODING 247
SWIDTH 480 0
DWIDTH 9 0
BBX 14 18 -2 -2
BITMAP
0000
0000
0000
0000
0000
0000
0000
0000
0000
0000
0000
0000
0000
0000
0000
0000
0000
0000
ENDCHAR
STARTCHAR   f8
ENCODING 248
SWIDTH 480 0
DWIDTH 9 0
BBX 14 18 -2 -2
BITMAP
0000
0000
0000
0000
0000
0000
0000
0000
0000
0000
0000
0000
0000
0000
0000
0000
0000
0000
ENDCHAR
STARTCHAR   f9
ENCODING 249
SWIDTH 480 0
DWIDTH 9 0
BBX 14 18 -2 -2
BITMAP
0000
0000
0000
0000
0000
0000
0000
0000
0000
0000
0000
0000
0000
0000
0000
0000
0000
0000
ENDCHAR
STARTCHAR   fa
ENCODING 250
SWIDTH 480 0
DWIDTH 9 0
BBX 14 18 -2 -2
BITMAP
0000
0000
0000
0000
0000
0000
0000
0000
0000
0000
0000
0000
0000
0000
0000
0000
0000
0000
ENDCHAR
STARTCHAR   fb
ENCODING 251
SWIDTH 480 0
DWIDTH 9 0
BBX 14 18 -2 -2
BITMAP
0000
0000
0000
0000
0000
0000
0000
0000
0000
0000
0000
0000
0000
0000
0000
0000
0000
0000
ENDCHAR
STARTCHAR   fc
ENCODING 252
SWIDTH 480 0
DWIDTH 9 0
BBX 14 18 -2 -2
BITMAP
0000
0000
0000
0000
0000
0000
0000
0000
0000
0000
0000
0000
0000
0000
0000
0000
0000
0000
ENDCHAR
STARTCHAR   fd
ENCODING 253
SWIDTH 480 0
DWIDTH 9 0
BBX 14 18 -2 -2
BITMAP
0000
0000
0000
0000
0000
0000
0000
0000
0000
0000
0000
0000
0000
0000
0000
0000
0000
0000
ENDCHAR
STARTCHAR   fe
ENCODING 254
SWIDTH 480 0
DWIDTH 9 0
BBX 14 18 -2 -2
BITMAP
0000
0000
0000
0000
0000
0000
0000
0000
0000
0000
0000
0000
0000
0000
0000
0000
0000
0000
ENDCHAR
STARTCHAR   ff
ENCODING 255
SWIDTH 480 0
DWIDTH 9 0
BBX 14 18 -2 -2
BITMAP
0000
0000
0000
0000
0000
0000
0000
0000
0000
0000
0000
0000
0000
0000
0000
0000
0000
0000
ENDCHAR
ENDFONT
